Patient4_TMGait_0pt6_01_right_38_GRF.mot
version=1
nRows=32
nColumns=19
inDegrees=no
endheader
time	F1x	F1y	F1z	M1x	M1y	M1z	F2x	F2y	F2z	M2x	M2y	M2z	EC1x	EC1y	EC1z	EC2x	EC2y	EC2z
45.71	-7.7557	771.7101	65.9617	-267.6882	-63.4632	758.228	2.5153	-5.6782	2.9915	-1.207	-0.94848	-5.1232	-0.0592	0.0182	-0.0073	-0.0462	0.0165	0.9585
45.7219	-7.4546	758.9724	62.5276	-262.7069	-59.9021	739.7123	1.6105	-3.0997	1.954	-0.50931	-0.51748	-2.7004	-0.0592	0.0182	-0.0073	-0.0462	0.0165	0.9585
45.7339	-6.4044	744.7154	59.5042	-257.1607	-56.395	719.5995	0.81871	-0.89669	1.0913	0.088125	-0.17157	-0.58505	-0.0592	0.0182	-0.0073	-0.0462	0.0165	0.9585
45.7458	-4.6057	730.0627	56.99	-251.4914	-53.0456	699.2439	0.18893	0.80465	0.4401	0.55294	0.082144	1.0916	-0.0592	0.0182	-0.0073	-0.0462	0.0165	0.9585
45.7577	-2.1899	716.1953	55.0041	-246.1396	-49.9277	679.8962	-0.24541	1.9939	-0.0026674	0.88406	0.24169	2.2827	-0.0592	0.0182	-0.0073	-0.0462	0.0165	0.9585
45.7696	0.73149	704.2283	53.458	-241.4966	-47.0097	662.6091	-0.52527	2.7453	-0.27642	1.1	0.33958	3.0556	-0.0592	0.0182	-0.0073	-0.0462	0.0165	0.9585
45.7816	4.0048	695.0768	52.3398	-237.8616	-44.3338	648.2122	-0.67293	3.1308	-0.4239	1.2181	0.39897	3.4616	-0.0592	0.0182	-0.0073	-0.0462	0.0165	0.9585
45.7935	7.5269	689.3982	51.5793	-235.435	-41.8747	637.2592	-0.75229	3.243	-0.49139	1.257	0.45314	3.5933	-0.0592	0.0182	-0.0073	-0.0462	0.0165	0.9585
45.8054	11.1821	687.5471	51.1945	-234.3024	-39.6904	630.0473	-0.79261	3.1186	-0.5156	1.2195	0.51466	3.4644	-0.0592	0.0182	-0.0073	-0.0462	0.0165	0.9585
45.8174	14.8782	689.5384	51.1327	-234.4335	-37.7681	626.549	-0.84282	2.7846	-0.51791	1.1009	0.59134	3.1092	-0.0592	0.0182	-0.0073	-0.0462	0.0165	0.9585
45.8293	18.5005	695.0433	51.4188	-235.6806	-36.1679	626.4447	-0.90478	2.2147	-0.51328	0.88195	0.67611	2.4858	-0.0592	0.0182	-0.0073	-0.0462	0.0165	0.9585
45.8412	21.9874	703.4583	52.0088	-237.8106	-34.8717	629.166	-1.0055	1.3764	-0.50821	0.54032	0.76531	1.5641	-0.0592	0.0182	-0.0073	-0.0462	0.0165	0.9585
45.8531	25.2797	713.9424	52.9115	-240.519	-33.9057	633.9406	-1.1059	0.22019	-0.49488	0.052206	0.83424	0.28378	-0.0592	0.0182	-0.0073	-0.0462	0.0165	0.9585
45.8651	28.3566	725.5431	54.083	-243.4774	-33.2427	639.8972	-1.1836	-1.2569	-0.4675	-0.58777	0.86371	-1.3451	-0.0592	0.0182	-0.0073	-0.0462	0.0165	0.9585
45.877	31.2452	737.3004	55.5015	-246.3685	-32.8626	646.1534	-1.1753	-3.0046	-0.40575	-1.3553	0.80824	-3.2773	-0.0592	0.0182	-0.0073	-0.0462	0.0165	0.9585
45.8889	34.0114	748.3793	57.1166	-248.9324	-32.711	651.9458	-1.0172	-4.8221	-0.30044	-2.1636	0.62874	-5.2811	-0.0592	0.0182	-0.0073	-0.0462	0.0165	0.9585
45.9009	36.7449	758.1316	58.883	-250.9923	-32.7325	656.6692	-0.598	-6.3493	-0.12605	-2.8464	0.25583	-6.9644	-0.0592	0.0182	-0.0073	-0.0462	0.0165	0.9585
45.9128	39.5632	766.1758	60.7304	-252.4797	-32.8423	659.972	0.17753	-6.9497	0.12441	-3.1189	-0.36038	-7.6204	-0.0592	0.0182	-0.0073	-0.0462	0.0165	0.9585
45.9247	42.5759	772.3533	62.579	-253.4166	-32.9477	661.703	1.4295	-5.6979	0.45851	-2.5611	-1.2727	-6.2387	-0.0592	0.0182	-0.0073	-0.0462	0.0165	0.9585
45.9366	45.8695	776.6829	64.3454	-253.8919	-32.962	661.8997	3.2235	-1.336	0.85448	-0.60848	-2.4797	-1.4201	-0.0592	0.0182	-0.0073	-0.0462	0.0165	0.9585
45.9486	49.4895	779.2027	65.9457	-254.0015	-32.8094	660.6309	5.5666	7.6703	1.269	3.4258	-3.9284	8.5198	-0.0592	0.0182	-0.0073	-0.0462	0.0165	0.9585
45.9605	53.3774	779.7978	67.2906	-253.7786	-32.4483	657.8867	8.2944	22.9766	1.6035	10.2777	-5.4404	25.3979	-0.0592	0.0182	-0.0073	-0.0462	0.0165	0.9585
45.9724	57.396	778.0041	68.2329	-253.1177	-31.8179	653.3708	11.0263	45.9937	1.7033	20.5744	-6.6722	50.7441	-0.0592	0.0182	-0.0073	-0.0462	0.0165	0.9585
45.9844	61.2684	772.9005	68.531	-251.7217	-30.8251	646.429	13.0149	77.3888	1.3537	34.6059	-7.0595	85.2755	-0.0592	0.0182	-0.0073	-0.0462	0.0165	0.9585
45.9963	64.6082	762.959	67.8437	-249.0355	-29.3322	635.828	13.1454	116.361	0.42954	52.0062	-5.9803	128.1108	-0.0592	0.0182	-0.0073	-0.0462	0.0165	0.9585
46.0082	66.8851	746.0608	65.7597	-244.2338	-27.1763	619.7661	10.4695	159.9653	-1.2254	71.4518	-2.8739	175.9994	-0.0592	0.0182	-0.0073	-0.0462	0.0165	0.9585
46.0201	67.7769	719.9929	62.0166	-236.4362	-24.2225	596.316	5.3152	203.6741	-3.8135	90.9222	2.2675	223.9169	-0.0592	0.0182	-0.0073	-0.0462	0.0165	0.9585
46.0321	67.2138	683.6175	56.623	-225.1819	-20.4599	564.5484	-1.1311	243.7231	-7.152	108.7601	8.6899	267.5463	-0.0592	0.0182	-0.0073	-0.0462	0.0165	0.9585
46.044	65.2237	637.3855	49.9803	-210.626	-16.1946	524.9951	-7.8576	279.3333	-10.8259	124.6253	15.4877	305.8502	-0.0592	0.0182	-0.0073	-0.0462	0.0165	0.9585
46.0559	61.756	582.9459	42.7348	-193.3652	-11.9792	479.2189	-14.151	312.1683	-14.0901	139.2807	21.5684	340.5302	-0.0592	0.0182	-0.0073	-0.0462	0.0165	0.9585
46.0679	56.6929	522.5665	35.5684	-174.1907	-8.4208	429.2326	-19.4668	344.6213	-16.6806	153.7945	26.4111	374.1841	-0.0592	0.0182	-0.0073	-0.0462	0.0165	0.9585
46.0798	50.005	458.7365	29.0355	-153.9304	-5.9746	377.1196	-23.5596	378.7526	-18.5183	169.0749	29.8545	409.0747	-0.0592	0.0182	-0.0073	-0.0462	0.0165	0.9585
